<svg xmlns="http://www.w3.org/2000/svg" viewBox="0 0 100 100" width="100%" height="100%">
  <style>
    .link { stroke: #9b6bd4; stroke-width: 2.5; }
    .node { fill: #9b6bd4; }
  </style>
  <g>
    <line class="link" x1="45" y1="15" x2="30" y2="30" />
    <line class="link" x1="45" y1="15" x2="58" y2="33" />
    <line class="link" x1="45" y1="15" x2="70" y2="25" />

    <line class="link" x1="30" y1="30" x2="25" y2="45" />
    <line class="link" x1="30" y1="30" x2="40" y2="48" />
    <line class="link" x1="30" y1="30" x2="58" y2="33" />

    <line class="link" x1="25" y1="45" x2="20" y2="65" />
    <line class="link" x1="25" y1="45" x2="40" y2="48" />

    <line class="link" x1="20" y1="65" x2="35" y2="80" />
    <line class="link" x1="20" y1="65" x2="45" y2="68" />
    <line class="link" x1="20" y1="65" x2="40" y2="48" />

    <line class="link" x1="35" y1="80" x2="55" y2="85" />
    <line class="link" x1="35" y1="80" x2="45" y2="68" />

    <line class="link" x1="55" y1="85" x2="45" y2="68" />
    <line class="link" x1="55" y1="85" x2="68" y2="70" />

    <line class="link" x1="45" y1="68" x2="40" y2="48" />
    <line class="link" x1="45" y1="68" x2="60" y2="52" />

    <line class="link" x1="68" y1="70" x2="60" y2="52" />
    <line class="link" x1="68" y1="70" x2="80" y2="60" />

    <line class="link" x1="80" y1="60" x2="60" y2="52" />
    <line class="link" x1="80" y1="60" x2="70" y2="25" />

    <line class="link" x1="60" y1="52" x2="40" y2="48" />
    <line class="link" x1="60" y1="52" x2="58" y2="33" />
    <line class="link" x1="60" y1="52" x2="70" y2="25" />

    <line class="link" x1="58" y1="33" x2="40" y2="48" />
    <line class="link" x1="58" y1="33" x2="70" y2="25" />

    <circle class="node" cx="45" cy="15" r="4.5" />
    <circle class="node" cx="30" cy="30" r="4.5" />
    <circle class="node" cx="70" cy="25" r="4.5" />
    <circle class="node" cx="25" cy="45" r="4.5" />
    <circle class="node" cx="58" cy="33" r="4.5" />
    <circle class="node" cx="20" cy="65" r="4.5" />
    <circle class="node" cx="40" cy="48" r="4.5" />
    <circle class="node" cx="80" cy="60" r="4.5" />
    <circle class="node" cx="35" cy="80" r="4.5" />
    <circle class="node" cx="45" cy="68" r="4.5" />
    <circle class="node" cx="60" cy="52" r="4.5" />
    <circle class="node" cx="55" cy="85" r="4.5" />
    <circle class="node" cx="68" cy="70" r="4.5" />
  </g>
</svg>
